<?xml version="1.0" encoding="UTF-8" standalone="no"?>
<!-- Created with Inkscape (http://www.inkscape.org/) -->

<svg
   xmlns:dc="http://purl.org/dc/elements/1.1/"
   xmlns:cc="http://creativecommons.org/ns#"
   xmlns:rdf="http://www.w3.org/1999/02/22-rdf-syntax-ns#"
   xmlns:svg="http://www.w3.org/2000/svg"
   xmlns="http://www.w3.org/2000/svg"
   xmlns:sodipodi="http://sodipodi.sourceforge.net/DTD/sodipodi-0.dtd"
   xmlns:inkscape="http://www.inkscape.org/namespaces/inkscape"
   width="67.591118mm"
   height="74.071671mm"
   viewBox="0 0 60.832007 66.664502"
   version="1.1"
   id="svg960"
   inkscape:version="0.92.4 (5da689c313, 2019-01-14)"
   sodipodi:docname="logo-time.svg">
  <defs
     id="defs954" />
  <sodipodi:namedview
     id="base"
     pagecolor="#ffffff"
     bordercolor="#666666"
     borderopacity="1.0"
     inkscape:pageopacity="0.0"
     inkscape:pageshadow="2"
     inkscape:zoom="0.35"
     inkscape:cx="1133.2868"
     inkscape:cy="-997.51988"
     inkscape:document-units="mm"
     inkscape:current-layer="layer1"
     showgrid="false"
     scale-x="0.9"
     fit-margin-top="0"
     fit-margin-left="0"
     fit-margin-right="0"
     fit-margin-bottom="0"
     inkscape:window-width="3440"
     inkscape:window-height="1377"
     inkscape:window-x="-8"
     inkscape:window-y="-8"
     inkscape:window-maximized="1" />
  <metadata
     id="metadata957">
    <rdf:RDF>
      <cc:Work
         rdf:about="">
        <dc:format>image/svg+xml</dc:format>
        <dc:type
           rdf:resource="http://purl.org/dc/dcmitype/StillImage" />
        <dc:title></dc:title>
      </cc:Work>
    </rdf:RDF>
  </metadata>
  <g
     inkscape:label="Layer 1"
     inkscape:groupmode="layer"
     id="layer1"
     transform="translate(285.17195,170.24892)">
    <path
       style="fill:#333333;stroke-width:0.26458338"
       d="m -236.77147,-170.24892 c -0.1732,0 -3.15911,4.20415 -4.79195,6.74687 -4.22791,6.58395 -8.7346,16.23939 -12.14034,26.01135 l -1.13483,3.25715 -1.34771,-1.30431 c -4.49762,-4.35348 -12.19922,-9.09916 -18.67741,-11.50885 -4.19593,-1.56075 -4.30759,-1.4351 -0.74104,0.83664 8.61624,5.4882 16.20641,11.77645 20.4525,16.94471 0.72761,0.88561 1.41919,1.57909 1.53685,1.54099 0.11766,-0.0381 0.9842,-1.85285 1.92546,-4.03283 2.36513,-5.47767 6.85947,-14.51261 8.89816,-17.8878 2.15862,-3.5737 4.95339,-7.48979 7.45278,-10.44278 l 1.957,-2.31201 -0.92346,-2.13887 c -0.50786,-1.17625 -1.23854,-2.94206 -1.62369,-3.92432 -0.38513,-0.98227 -0.76411,-1.78594 -0.84232,-1.78594 z"
       id="path839"
       inkscape:connector-curvature="0" />
    <path
       style="fill:#f9f9f9;stroke-width:0.26458269"
       d="m -254.75581,-164.43481 c -0.54397,0 -1.08775,0.26043 -1.60764,0.78034 l -0.77361,0.77306 v 4.13877 c 0,2.45462 0.11598,4.35578 0.28527,4.67206 0.15696,0.29332 0.66297,0.69792 1.12447,0.89866 1.03985,0.45231 0.83188,0.45072 1.88463,0.0109 0.49294,-0.20595 1.02512,-0.61468 1.18234,-0.90847 0.16985,-0.31734 0.28578,-2.21433 0.28578,-4.6731 v -4.13877 l -0.7736,-0.77306 c -0.51989,-0.51991 -1.06367,-0.78034 -1.60764,-0.78034 z m -13.88125,3.82252 c -0.70272,-0.0164 -1.44024,0.24691 -1.88928,0.76896 -0.34836,0.40497 -0.63355,1.06412 -0.63355,1.46449 0,0.81172 3.43137,7.03884 4.28447,7.77523 0.30775,0.26567 0.96513,0.46302 1.54202,0.46302 1.33747,0 2.49884,-1.26592 2.29287,-2.49907 -0.14702,-0.88021 -3.34818,-6.56981 -4.17285,-7.41658 -0.35152,-0.36095 -0.87712,-0.54327 -1.42368,-0.55605 z m 38.20213,10.20712 c -0.86771,0 -6.94012,3.36598 -7.71836,4.27831 -0.67366,0.78973 -0.60471,2.37993 0.13229,3.05044 0.32741,0.29789 0.77391,0.60647 0.99219,0.68627 0.83117,0.30385 1.28209,0.13475 4.49789,-1.68725 4.06051,-2.30057 4.35372,-2.56812 4.35372,-3.97597 0,-0.85873 -0.15364,-1.217 -0.73639,-1.71823 -0.41877,-0.36023 -1.07511,-0.63357 -1.52134,-0.63357 z m -53.37787,14.02292 -0.68523,0.81391 c -0.92781,1.10262 -0.89707,2.18903 0.0889,3.175 l 0.77307,0.77359 h 4.00232 c 4.45447,0 5.31477,-0.22903 5.77068,-1.53686 0.3684,-1.05677 0.11277,-2.08553 -0.67179,-2.70267 -0.60076,-0.47252 -1.08232,-0.52297 -4.97177,-0.52297 z m 53.83055,0 c -4.65532,0 -5.22814,0.15127 -5.74846,1.51983 -0.35864,0.94323 0.15993,2.3611 1.03818,2.83804 0.52663,0.28601 1.73716,0.38579 4.76144,0.39378 l 4.05554,0.0109 0.77308,-0.77358 c 0.98593,-0.98597 1.01616,-2.07238 0.0884,-3.175 l -0.68471,-0.81392 z m -43.316,10.58333 c -0.79316,0 -6.98358,3.57711 -7.64447,4.4173 -0.87993,1.11868 -0.51113,2.668 0.81597,3.42617 0.34779,0.19866 0.97678,0.30085 1.39733,0.22685 0.9066,-0.15944 6.61982,-3.42744 7.33595,-4.19613 0.49127,-0.52732 0.65477,-1.8353 0.33383,-2.67166 -0.20228,-0.52716 -1.45963,-1.20253 -2.23861,-1.20253 z m 37.07972,0 c -0.77475,0 -2.03172,0.67678 -2.23345,1.20253 -0.27448,0.71528 -0.18426,2.10971 0.16639,2.57195 0.18191,0.23975 1.87541,1.33415 3.76359,2.43188 1.88818,1.09773 3.65054,1.99572 3.91601,1.99572 0.86214,0 1.96156,-0.75009 2.30115,-1.56992 0.44989,-1.08615 0.17197,-1.98288 -0.85473,-2.75848 -1.55078,-1.17149 -6.47496,-3.87368 -7.05896,-3.87368 z m -7.81292,7.77679 c -1.23225,0.0484 -2.52232,1.23331 -2.52232,2.47945 0,0.24307 0.91383,2.03818 2.03088,3.9889 1.59196,2.78007 2.2068,3.62348 2.84425,3.90104 0.44729,0.19479 0.82556,0.35833 0.84026,0.36434 0.0147,0.006 0.40495,-0.1219 0.86764,-0.28319 0.8777,-0.30596 1.61902,-1.38609 1.61902,-2.35955 0,-0.55068 -2.66419,-5.39803 -3.86901,-7.03938 -0.33452,-0.45571 -0.91522,-0.90521 -1.29034,-0.9994 -0.16975,-0.0426 -0.34435,-0.0591 -0.52038,-0.0522 z m -21.44303,0.0109 c -1.07422,-0.002 -1.90679,1.01158 -3.72689,4.11861 -2.17108,3.70623 -2.38252,4.62687 -1.30895,5.70045 0.69724,0.69723 2.13386,0.87783 3.05664,0.38393 0.57709,-0.30884 4.49583,-7.07614 4.49583,-7.76385 0,-0.93967 -0.78092,-1.97959 -1.71927,-2.28928 -0.28874,-0.0953 -0.54946,-0.14944 -0.79736,-0.14986 z m 10.71867,2.79569 c -0.56952,0 -1.07982,0.24575 -1.60764,0.77362 l -0.77361,0.77306 v 4.13877 c 0,2.32087 0.11922,4.36152 0.27131,4.64571 0.14918,0.27874 0.59567,0.68297 0.99219,0.89813 0.39652,0.21519 0.8754,0.39553 1.06453,0.40153 0.579,0.0178 1.87402,-0.75925 2.16213,-1.29759 0.15354,-0.28689 0.27233,-2.31514 0.27233,-4.64778 v -4.13877 l -0.7736,-0.77306 c -0.52783,-0.52787 -1.03813,-0.77362 -1.60764,-0.77362 z"
       id="path839-2"
       inkscape:connector-curvature="0" />
  </g>
</svg>
